<?xml version="1.0" encoding="UTF-8" standalone="no"?>
<svg
   xmlns:dc="http://purl.org/dc/elements/1.1/"
   xmlns:cc="http://creativecommons.org/ns#"
   xmlns:rdf="http://www.w3.org/1999/02/22-rdf-syntax-ns#"
   xmlns:svg="http://www.w3.org/2000/svg"
   xmlns="http://www.w3.org/2000/svg"
   xmlns:sodipodi="http://sodipodi.sourceforge.net/DTD/sodipodi-0.dtd"
   xmlns:inkscape="http://www.inkscape.org/namespaces/inkscape"
   width="800.000"
   height="600.000"
   viewBox="0.0 0.0 800.000 600.000"
   version="1.1"
   id="svg7338"
   sodipodi:docname="top.svg"
   inkscape:version="0.92.1 r15371">
  <metadata
     id="metadata7344">
    <rdf:RDF>
      <cc:Work
         rdf:about="">
        <dc:format>image/svg+xml</dc:format>
        <dc:type
           rdf:resource="http://purl.org/dc/dcmitype/StillImage" />
        <dc:title>Produce by Acme CAD Converter</dc:title>
      </cc:Work>
    </rdf:RDF>
  </metadata>
  <defs
     id="defs7342" />
  <sodipodi:namedview
     pagecolor="#ffffff"
     bordercolor="#666666"
     borderopacity="1"
     objecttolerance="10"
     gridtolerance="10"
     guidetolerance="10"
     inkscape:pageopacity="0"
     inkscape:pageshadow="2"
     inkscape:window-width="1920"
     inkscape:window-height="1017"
     id="namedview7340"
     showgrid="false"
     inkscape:zoom="1.9987552"
     inkscape:cx="351.85749"
     inkscape:cy="186.59829"
     inkscape:window-x="-8"
     inkscape:window-y="-8"
     inkscape:window-maximized="1"
     inkscape:current-layer="svg7338" />
  <title
     id="title3680">Produce by Acme CAD Converter</title>
  <desc
     id="desc3682">Produce by Acme CAD Converter</desc>
  <g
     id="g10345"
     transform="rotate(90,305.89,378.01)">
    <g
       id="g4475">
      <path
         d="m 157.46,368.58 18.66,-2.84 m 0,0 18.71,-2.55 m 0,0 18.75,-2.28"
         id="path4473"
         inkscape:connector-curvature="0"
         style="fill:none;stroke:#000000;stroke-width:0.5" />
    </g>
    <g
       id="g4479">
      <path
         d="m 158.89,349.41 1.67,-2.23 m 0,0 1.92,-2.02 m 0,0 2.15,-1.76 m 0,0 2.35,-1.5 m 0,0 2.52,-1.19 m 0,0 v 0 m 0,0 5.46,-1.94 m 0,0 5.55,-1.68 m 0,0 5.63,-1.41 m 0,0 5.68,-1.14 m 0,0 v 0 m 0,0 12.49,-2.19 m 0,0 12.56,-1.81"
         id="path4477"
         inkscape:connector-curvature="0"
         style="fill:none;stroke:#000000;stroke-width:0.5" />
    </g>
    <g
       id="g4483">
      <path
         d="m 170.76,323.02 0.79,0.82 m 0,0 0.56,0.99 m 0,0 0.27,1.11 m 0,0 v 0 m 0,0 -0.04,1.23 m 0,0 -0.3,1.2 m 0,0 -0.55,1.1"
         id="path4481"
         inkscape:connector-curvature="0"
         style="fill:none;stroke:#000000;stroke-width:0.5" />
    </g>
    <g
       id="g4487">
      <path
         d="m 185.89,323.88 11.42,-1.11 m 0,0 11.43,-0.78 m 0,0 11.46,-0.45 m 0,0 11.47,-0.13 m 0,0 v 0 m 0,0 157.85,0.76 m 0,0 v 0 m 0,0 10.28,0.26 m 0,0 10.27,0.64 m 0,0 10.23,1.02 m 0,0 10.19,1.41 m 0,0 v 0 m 0,0 -8.44,5.22 m 0,0 v 0 m 0,0 -2.09,0.87 m 0,0 -2.18,0.58 m 0,0 -2.25,0.29 m 0,0 v 0 m 0,0 -37.08,0.24 m 0,0 -37.08,-0.11 m 0,0 -37.08,-0.43 m 0,0 v 0 m 0,0 -10.06,-0.92 m 0,0 -10.03,-1.26 m 0,0 -9.97,-1.62 m 0,0 -9.91,-1.96 m 0,0 -9.84,-2.3 m 0,0 -9.75,-2.64"
         id="path4485"
         inkscape:connector-curvature="0"
         style="fill:none;stroke:#000000;stroke-width:0.5" />
    </g>
    <g
       id="g4491">
      <path
         d="m 236.07,326.05 -0.14,-0.74 m 0,0 0.21,-0.71 m 0,0 0.5,-0.55 m 0,0 v 0 m 0,0 2.4,-1.46 m 0,0 2.57,-1.14 m 0,0 0.02,-3.41"
         id="path4489"
         inkscape:connector-curvature="0"
         style="fill:none;stroke:#000000;stroke-width:0.5" />
    </g>
    <g
       id="g4495">
      <path
         d="m 151.33,363.32 0.35,-7.53 m 0,0 0.5,-7.52 m 0,0 v 0 m 0,0 0.24,-1.7 m 0,0 0.44,-1.65 m 0,0 0.64,-1.59 m 0,0 v 0 m 0,0 1.71,-3.28 m 0,0 1.94,-3.15 m 0,0 2.17,-3 m 0,0 2.37,-2.84 m 0,0 2.58,-2.66"
         id="path4493"
         inkscape:connector-curvature="0"
         style="fill:none;stroke:#000000;stroke-width:0.5" />
    </g>
    <g
       id="g4499">
      <path
         d="m 256.19,324.53 -2.74,-3.04"
         id="path4497"
         inkscape:connector-curvature="0"
         style="fill:none;stroke:#000000;stroke-width:0.5" />
    </g>
    <g
       id="g4503">
      <path
         d="m 265.81,326.72 -2.16,-2.55 m 0,0 -2.05,-2.65"
         id="path4501"
         inkscape:connector-curvature="0"
         style="fill:none;stroke:#000000;stroke-width:0.5" />
    </g>
    <g
       id="g4507">
      <path
         d="m 276.4,331.23 10.14,1.44 m 0,0 10.18,1.07 m 0,0 10.21,0.71 m 0,0 10.24,0.35 m 0,0 v 0 m 0,0 34.6,1.23 m 0,0 34.61,0.98 m 0,0 v 0 m 0,0 30.49,0.9 m 0,0 v 0 m 0,0 8,0.38 m 0,0 7.99,0.64 m 0,0 v 0 m 0,0 -5.92,0.28 m 0,0 -5.92,-0.04 m 0,0 v 0 m 0,0 -30.79,-0.99 m 0,0 -30.79,-0.63 m 0,0 v 0 m 0,0 -21.44,-0.46 m 0,0 -21.43,-0.75 m 0,0 -21.41,-1.03 m 0,0 0.36,2.36 m 0,0 v 0 m 0,0 14,1.01 m 0,0 14.02,0.61 m 0,0 14.04,0.22 m 0,0 v 0 m 0,0 43.94,1.17 m 0,0 43.94,0.91 m 0,0 v 0 m 0,0 3.76,-0.03 m 0,0 3.75,-0.21"
         id="path4505"
         inkscape:connector-curvature="0"
         style="fill:none;stroke:#000000;stroke-width:0.5" />
    </g>
    <g
       id="g4511">
      <path
         d="m 371.51,336.62 0.77,1.15"
         id="path4509"
         inkscape:connector-curvature="0"
         style="fill:none;stroke:#000000;stroke-width:0.5" />
    </g>
    <g
       id="g4515">
      <path
         d="m 411.52,337.73 0.67,1.12"
         id="path4513"
         inkscape:connector-curvature="0"
         style="fill:none;stroke:#000000;stroke-width:0.5" />
    </g>
    <g
       id="g4519">
      <path
         d="m 262.87,323.19 126.25,0.23 m 0,0 v 0 m 0,0 10.36,0.49 m 0,0 10.36,0.69 m 0,0 10.34,0.88 m 0,0 v 0 m 0,0 4.04,0.57 m 0,0 3.98,0.9"
         id="path4517"
         inkscape:connector-curvature="0"
         style="fill:none;stroke:#000000;stroke-width:0.5" />
    </g>
    <g
       id="g4523">
      <path
         d="m 276.07,333.84 9.6,1.33 m 0,0 9.63,1.09"
         id="path4521"
         inkscape:connector-curvature="0"
         style="fill:none;stroke:#000000;stroke-width:0.5" />
    </g>
    <g
       id="g4527">
      <path
         d="m 151.24,373.85 0.66,-0.98 m 0,0 v 0 m 0,0 0.26,-0.22 m 0,0 0.33,-0.03 m 0,0 0.3,0.17 m 0,0 0.9,0.92"
         id="path4525"
         inkscape:connector-curvature="0"
         style="fill:none;stroke:#000000;stroke-width:0.5" />
    </g>
    <g
       id="g4531">
      <path
         d="m 211.41,321.86 3.39,2.09 m 0,0 3.3,2.25 m 0,0 3.18,2.41"
         id="path4529"
         inkscape:connector-curvature="0"
         style="fill:none;stroke:#000000;stroke-width:0.5" />
    </g>
    <g
       id="g4535">
      <path
         d="m 318.65,323.2 2.82,2.31 m 0,0 2.68,2.47 m 0,0 2.53,2.62 m 0,0 v 0 m 0,0 0.64,0.88 m 0,0 0.42,1"
         id="path4533"
         inkscape:connector-curvature="0"
         style="fill:none;stroke:#000000;stroke-width:0.5" />
    </g>
    <g
       id="g4539">
      <path
         d="m 324.95,323.21 2.18,2.04 m 0,0 1.96,2.24 m 0,0 1.72,2.44 m 0,0 1.47,2.59"
         id="path4537"
         inkscape:connector-curvature="0"
         style="fill:none;stroke:#000000;stroke-width:0.5" />
    </g>
    <g
       id="g4543">
      <path
         d="m 329.91,323.22 1.97,2.06 m 0,0 1.73,2.26 m 0,0 1.47,2.44 m 0,0 1.2,2.58"
         id="path4541"
         inkscape:connector-curvature="0"
         style="fill:none;stroke:#000000;stroke-width:0.5" />
    </g>
    <g
       id="g4547">
      <path
         d="m 383.09,332.68 2.02,-9.27"
         id="path4545"
         inkscape:connector-curvature="0"
         style="fill:none;stroke:#000000;stroke-width:0.5" />
    </g>
    <g
       id="g4551">
      <path
         d="m 380.22,323.38 4.26,2.9"
         id="path4549"
         inkscape:connector-curvature="0"
         style="fill:none;stroke:#000000;stroke-width:0.5" />
    </g>
    <g
       id="g4555">
      <path
         d="m 363.18,334.33 18.89,-0.1 m 0,0 18.89,0.14 m 0,0 18.89,0.38 m 0,0 v 0 m 0,0 9.94,0.4 m 0,0 v 0 m 0,0 2.9,0.33 m 0,0 v 0 m 0,0 1.6,0.39 m 0,0 1.54,0.58 m 0,0 1.48,0.74"
         id="path4553"
         inkscape:connector-curvature="0"
         style="fill:none;stroke:#000000;stroke-width:0.5" />
    </g>
    <g
       id="g4559">
      <path
         d="m 315.86,334.78 0.46,0.41 m 0,0 0.28,0.54 m 0,0 0.09,0.61"
         id="path4557"
         inkscape:connector-curvature="0"
         style="fill:none;stroke:#000000;stroke-width:0.5" />
    </g>
    <g
       id="g4563">
      <path
         d="m 363.18,336.38 -0.02,1.23"
         id="path4561"
         inkscape:connector-curvature="0"
         style="fill:none;stroke:#000000;stroke-width:0.5" />
    </g>
    <g
       id="g4567">
      <path
         d="m 300.36,334.04 -0.08,1.54"
         id="path4565"
         inkscape:connector-curvature="0"
         style="fill:none;stroke:#000000;stroke-width:0.5" />
    </g>
    <g
       id="g4571">
      <path
         d="m 227.25,342.68 12.18,-0.13 m 0,0 1.26,-1.34 m 0,0 0.32,-12.09"
         id="path4569"
         inkscape:connector-curvature="0"
         style="fill:none;stroke:#000000;stroke-width:0.5" />
    </g>
    <g
       id="g4575">
      <path
         d="m 246.8,332.16 0.02,7.6 m 0,0 v 0 m 0,0 -0.79,0.1 m 0,0 -0.79,-0.12 m 0,0 -0.73,-0.33 m 0,0 -0.6,-0.53 m 0,0 v 0 m 0,0 -0.37,-0.66 m 0,0 -0.14,-0.74 m 0,0 v 0 m 0,0 0.08,-3.24 m 0,0 v 0 m 0,0 0.2,-0.7 m 0,0 0.47,-0.56 m 0,0 v 0 m 0,0 0.83,-0.45 m 0,0 0.89,-0.28 m 0,0 0.93,-0.09"
         id="path4573"
         inkscape:connector-curvature="0"
         style="fill:none;stroke:#000000;stroke-width:0.5" />
    </g>
    <g
       id="g4579">
      <path
         d="m 254.36,330.21 0.5,6.84 m 0,0 4.72,0.1"
         id="path4577"
         inkscape:connector-curvature="0"
         style="fill:none;stroke:#000000;stroke-width:0.5" />
    </g>
    <g
       id="g4583">
      <path
         d="m 260.63,331.02 2.93,33.33 m 0,0 0.05,1.7"
         id="path4581"
         inkscape:connector-curvature="0"
         style="fill:none;stroke:#000000;stroke-width:0.5" />
    </g>
    <g
       id="g4587">
      <path
         d="m 262.73,331.33 2.15,32.51 m 0,0 0.02,3.4"
         id="path4585"
         inkscape:connector-curvature="0"
         style="fill:none;stroke:#000000;stroke-width:0.5" />
    </g>
    <g
       id="g4591">
      <path
         d="m 226.45,375.42 0.02,-5.86 m 0,0 0.31,-5.86 m 0,0 0.59,-5.84 m 0,0 0.87,-5.8 m 0,0 v 0 m 0,0 0.15,-0.25 m 0,0 0.28,-0.07 m 0,0 0.25,0.15 m 0,0 0.08,0.28 m 0,0 v 0 m 0,0 -0.7,7.73 m 0,0 -0.47,7.74 m 0,0 -0.23,7.76 m 0,0 v 0 m 0,0 -0.16,0.4 m 0,0 -0.4,0.17 m 0,0 -0.41,-0.15 m 0,0 -0.18,-0.4"
         id="path4589"
         inkscape:connector-curvature="0"
         style="fill:none;stroke:#000000;stroke-width:0.5" />
    </g>
    <g
       id="g4595">
      <path
         d="m 246.2,368.52 6.92,0.19 m 0,0 6.89,0.53 m 0,0 6.86,0.88 m 0,0 v 0 m 0,0 0.92,0.23 m 0,0 0.85,0.42 m 0,0 0.76,0.57"
         id="path4593"
         inkscape:connector-curvature="0"
         style="fill:none;stroke:#000000;stroke-width:0.5" />
    </g>
    <g
       id="g4599">
      <path
         d="m 262.93,365.12 -0.41,0.54 m 0,0 -0.25,0.63 m 0,0 -0.08,0.67 m 0,0 v 0 m 0,0 0.03,2.53"
         id="path4597"
         inkscape:connector-curvature="0"
         style="fill:none;stroke:#000000;stroke-width:0.5" />
    </g>
    <g
       id="g4603">
      <path
         d="m 452.33,332.87 -1.67,-2.13 m 0,0 -1.84,-2 m 0,0 -1.99,-1.84 m 0,0 0.24,-4.06"
         id="path4601"
         inkscape:connector-curvature="0"
         style="fill:none;stroke:#000000;stroke-width:0.5" />
    </g>
    <g
       id="g4607">
      <path
         d="M 369.04,317.39 318.92,317 m 0,0 v 0 m 0,0 h -0.5"
         id="path4605"
         inkscape:connector-curvature="0"
         style="fill:none;stroke:#000000;stroke-width:0.5" />
    </g>
    <g
       id="g4611">
      <path
         d="m 302.32,317.05 -19.65,0.24 m 0,0 -19.65,0.41"
         id="path4609"
         inkscape:connector-curvature="0"
         style="fill:none;stroke:#000000;stroke-width:0.5" />
    </g>
    <g
       id="g4615">
      <path
         d="m 380.79,318.41 4.61,0.03 m 0,0 v 0 m 0,0 -0.62,-0.91 m 0,0 -0.84,-0.72 m 0,0 -0.99,-0.48 m 0,0 -1.08,-0.22 m 0,0 v 0 m 0,0 -4.71,-0.27 m 0,0 -4.72,0.04 m 0,0 v 0 m 0,0 -1.2,0.21 m 0,0 -1.12,0.48 m 0,0 -0.98,0.73 m 0,0 -0.79,0.93 m 0,0 3.98,0.1 m 0,0 v 0 m 0,0 0.83,-0.47 m 0,0 0.91,-0.29 m 0,0 0.94,-0.11 m 0,0 v 0 m 0,0 3.24,0.06 m 0,0 v 0 m 0,0 1.32,0.3 m 0,0 1.22,0.59"
         id="path4613"
         inkscape:connector-curvature="0"
         style="fill:none;stroke:#000000;stroke-width:0.5" />
    </g>
    <g
       id="g4619">
      <path
         d="m 382.2,316.15 -0.01,2.27"
         id="path4617"
         inkscape:connector-curvature="0"
         style="fill:none;stroke:#000000;stroke-width:0.5" />
    </g>
    <g
       id="g4623">
      <path
         d="m 389.1,317.57 0.2,0.67 m 0,0 0.3,0.62 m 0,0 v 0 m 0,0 0.43,0.78 m 0,0 v 0 m 0,0 0.18,0.75 m 0,0 -0.14,0.76 m 0,0 v 0 m 0,0 -0.35,1.02 m 0,0 -0.41,1.26 m 0,0 -2.02,9.23"
         id="path4621"
         inkscape:connector-curvature="0"
         style="fill:none;stroke:#000000;stroke-width:0.5" />
    </g>
    <g
       id="g4627">
      <path
         d="m 321.64,317.02 0.72,1.51 m 0,0 0.46,1.61 m 0,0 0.18,1.66"
         id="path4625"
         inkscape:connector-curvature="0"
         style="fill:none;stroke:#000000;stroke-width:0.5" />
    </g>
    <g
       id="g4631">
      <path
         d="m 314.36,317.8 4.61,0.03 m 0,0 v 0 m 0,0 -0.62,-0.9 m 0,0 -0.82,-0.72 m 0,0 -0.98,-0.48 m 0,0 -1.06,-0.23 m 0,0 v 0 m 0,0 -4.73,-0.27 m 0,0 -4.73,0.01 m 0,0 v 0 m 0,0 -1.22,0.18 m 0,0 -1.14,0.48 m 0,0 -0.98,0.75 m 0,0 -0.77,0.97 m 0,0 3.98,0.1 m 0,0 v 0 m 0,0 0.83,-0.47 m 0,0 0.91,-0.29 m 0,0 0.94,-0.11 m 0,0 v 0 m 0,0 3.24,0.06 m 0,0 v 0 m 0,0 1.32,0.3 m 0,0 1.22,0.59"
         id="path4629"
         inkscape:connector-curvature="0"
         style="fill:none;stroke:#000000;stroke-width:0.5" />
    </g>
    <g
       id="g4635">
      <path
         d="m 315.96,315.57 -0.01,2.24"
         id="path4633"
         inkscape:connector-curvature="0"
         style="fill:none;stroke:#000000;stroke-width:0.5" />
    </g>
    <g
       id="g4639">
      <path
         d="m 439.32,337.62 6.84,1.13 m 0,0 6.78,1.48"
         id="path4637"
         inkscape:connector-curvature="0"
         style="fill:none;stroke:#000000;stroke-width:0.5" />
    </g>
    <g
       id="g4643">
      <path
         d="m 454.31,344.28 2.85,0.31"
         id="path4641"
         inkscape:connector-curvature="0"
         style="fill:none;stroke:#000000;stroke-width:0.5" />
    </g>
    <g
       id="g4647">
      <path
         d="m 455.72,349.46 1.24,5.53 m 0,0 0.88,5.59 m 0,0 0.52,5.65 m 0,0 0.15,5.66 m 0,0 v 0 m 0,0 v 6.48"
         id="path4645"
         inkscape:connector-curvature="0"
         style="fill:none;stroke:#000000;stroke-width:0.5" />
    </g>
    <g
       id="g4651">
      <path
         d="m 176.97,322.89 9.62,-2.18 m 0,0 9.57,-2.38 m 0,0 v 0 m 0,0 2.71,-0.56 m 0,0 2.75,-0.26 m 0,0 2.77,0.02 m 0,0 v 0 m 0,0 18.62,0.07 m 0,0 18.62,0.44 m 0,0 v 0 m 0,0 6.47,0.1 m 0,0 6.47,-0.21 m 0,0 v 0 m 0,0 0.82,-0.02 m 0,0 v 0 m 0,0 2.95,0.64 m 0,0 3.01,0.24 m 0,0 v 0 m 0,0 0.69,-0.13 m 0,0 0.59,-0.38 m 0,0 0.39,-0.58 m 0,0 v 0 m 0,0 1.5,-3.87 m 0,0 1.3,-3.94 m 0,0 1.11,-4.01 m 0,0 v 0 m 0,0 0.03,-0.65 m 0,0 -0.23,-0.61 m 0,0 -0.45,-0.48 m 0,0 -0.6,-0.26 m 0,0 v 0 m 0,0 -1.22,-0.12 m 0,0 -1.22,0.16 m 0,0 -1.15,0.44 m 0,0 -1.02,0.69 m 0,0 v 0 m 0,0 -1.37,1.44 m 0,0 -1.09,1.68 m 0,0 v 0 m 0,0 -1.64,3.47 m 0,0 -1.36,3.6 m 0,0 v 0 m 0,0 -0.27,1.32 m 0,0 0.05,1.35 m 0,0 v 0 m 0,0 -0.6,0.47 m 0,0 -0.35,0.68 m 0,0 v 0 m 0,0 0.07,0.43 m 0,0 0.32,0.31 m 0,0 v 0 m 0,0 1.34,0.41 m 0,0 v 0 m 0,0 2.28,0.3 m 0,0 h 2.31 m 0,0 v 0 m 0,0 1.06,-0.22 m 0,0 1.02,-0.36 m 0,0 v 0 m 0,0 0.28,-0.27 m 0,0 0.07,-0.38 m 0,0 -0.18,-0.34 m 0,0 v 0 m 0,0 -0.66,-0.44"
         id="path4649"
         inkscape:connector-curvature="0"
         style="fill:none;stroke:#000000;stroke-width:0.5" />
    </g>
    <g
       id="g4655">
      <path
         d="m 255.53,315.5 4.5,0.49"
         id="path4653"
         inkscape:connector-curvature="0"
         style="fill:none;stroke:#000000;stroke-width:0.5" />
    </g>
    <g
       id="g4659">
      <path
         d="m 265.91,303.95 -4.71,11.97"
         id="path4657"
         inkscape:connector-curvature="0"
         style="fill:none;stroke:#000000;stroke-width:0.5" />
    </g>
    <g
       id="g4663">
      <path
         d="m 456.93,376.31 1.58,-0.01"
         id="path4661"
         inkscape:connector-curvature="0"
         style="fill:none;stroke:#000000;stroke-width:0.5" />
    </g>
    <g
       id="g4667">
      <path
         d="m 457.03,371.79 1.48,0.84"
         id="path4665"
         inkscape:connector-curvature="0"
         style="fill:none;stroke:#000000;stroke-width:0.5" />
    </g>
    <g
       id="g4671">
      <path
         d="m 456.96,367.18 1.45,-0.07"
         id="path4669"
         inkscape:connector-curvature="0"
         style="fill:none;stroke:#000000;stroke-width:0.5" />
    </g>
    <g
       id="g4675">
      <path
         d="m 218.25,378.01 -0.2,-6.06 m 0,0 0.08,-6.05 m 0,0 0.35,-6.05 m 0,0 0.64,-6.02 m 0,0 0.92,-5.99 m 0,0 v 0 m 0,0 0.93,-4.19 m 0,0 1.28,-4.09 m 0,0 0.77,0.55 m 0,0 v 0 m 0,0 -1.39,5.35 m 0,0 -1.01,5.43 m 0,0 -0.64,5.48 m 0,0 -0.27,5.52 m 0,0 v 0 m 0,0 0.01,6.18 m 0,0 0.17,6.18 m 0,0 v 0 m 0,0 0.39,1.86 m 0,0 0.23,1.9 m 0,0 v 0 m 0,0 -0.1,0.47 m 0,0 -0.34,0.35 m 0,0 -0.47,0.11 m 0,0 v 0 m 0,0 -0.56,-0.13 m 0,0 -0.47,-0.33 m 0,0 -0.32,-0.47"
         id="path4673"
         inkscape:connector-curvature="0"
         style="fill:none;stroke:#000000;stroke-width:0.5" />
    </g>
    <g
       id="g4679">
      <path
         d="m 218.09,374.34 1.8,-0.09"
         id="path4677"
         inkscape:connector-curvature="0"
         style="fill:none;stroke:#000000;stroke-width:0.5" />
    </g>
    <g
       id="g4683">
      <path
         d="m 213.14,378.01 0.15,-9.74 m 0,0 v 0 m 0,0 0.21,-6.13 m 0,0 0.53,-6.1 m 0,0 0.84,-6.06 m 0,0 1.16,-6.02 m 0,0 1.47,-5.95 m 0,0 1.77,-5.86 m 0,0 v 0 m 0,0 0.66,-1.62 m 0,0 0.97,-1.47 m 0,0 1.22,-1.26 m 0,0 1.44,-1 m 0,0 1.6,-0.71 m 0,0 1.71,-0.39 m 0,0 1.76,-0.06 m 0,0 v 0 m 0,0 9.61,0.56 m 0,0 9.59,0.84 m 0,0 9.56,1.12 m 0,0 9.53,1.39 m 0,0 9.48,1.68 m 0,0 v 0 m 0,0 -1.4,11.66 m 0,0 -1.15,11.68 m 0,0 -0.91,11.71 m 0,0 -0.67,11.73 m 0,0 v 0 m 0,0 0.67,11.72 m 0,0 0.91,11.71 m 0,0 1.15,11.69 m 0,0 1.4,11.66 m 0,0 v 0 m 0,0 -9.48,1.67 m 0,0 -9.53,1.4 m 0,0 -9.56,1.12 m 0,0 -9.59,0.84 m 0,0 -9.61,0.56 m 0,0 v 0 m 0,0 -1.76,-0.06 m 0,0 -1.71,-0.4 m 0,0 -1.6,-0.71 m 0,0 -1.44,-1 m 0,0 -1.22,-1.26 m 0,0 -0.97,-1.46 m 0,0 -0.66,-1.63 m 0,0 v 0 m 0,0 -1.77,-5.86 m 0,0 -1.47,-5.95 m 0,0 -1.16,-6.01 m 0,0 -0.84,-6.07 m 0,0 -0.53,-6.1 m 0,0 -0.21,-6.12 m 0,0 v 0 m 0,0 -0.15,-9.74"
         id="path4681"
         inkscape:connector-curvature="0"
         style="fill:none;stroke:#000000;stroke-width:0.5" />
    </g>
    <g
       id="g4687">
      <path
         d="m 232.23,430.2 -1.71,-1.13 m 0,0 -1.47,-1.44 m 0,0 -1.18,-1.68 m 0,0 -0.84,-1.87 m 0,0 v 0 m 0,0 -1.77,-6.83 m 0,0 -1.41,-6.91 m 0,0 -1.04,-6.98 m 0,0 -0.67,-7.02 m 0,0 -0.29,-7.04 m 0,0 -0.19,-11.29 m 0,0 0.19,-11.29 m 0,0 v 0 m 0,0 0.29,-7.05 m 0,0 0.67,-7.02 m 0,0 1.04,-6.98 m 0,0 1.41,-6.91 m 0,0 1.77,-6.82 m 0,0 v 0 m 0,0 0.84,-1.88 m 0,0 1.18,-1.68 m 0,0 1.47,-1.43 m 0,0 1.71,-1.14"
         id="path4685"
         inkscape:connector-curvature="0"
         style="fill:none;stroke:#000000;stroke-width:0.5" />
    </g>
    <g
       id="g4691">
      <path
         d="m 157.46,387.43 18.66,2.84 m 0,0 18.71,2.56 m 0,0 18.75,2.27"
         id="path4689"
         inkscape:connector-curvature="0"
         style="fill:none;stroke:#000000;stroke-width:0.5" />
    </g>
    <g
       id="g4695">
      <path
         d="m 158.89,406.61 1.67,2.23 m 0,0 1.92,2.01 m 0,0 2.15,1.77 m 0,0 2.35,1.49 m 0,0 2.52,1.2 m 0,0 v 0 m 0,0 5.46,1.94 m 0,0 5.55,1.68 m 0,0 5.63,1.41 m 0,0 5.68,1.14 m 0,0 v 0 m 0,0 12.49,2.19 m 0,0 12.56,1.8"
         id="path4693"
         inkscape:connector-curvature="0"
         style="fill:none;stroke:#000000;stroke-width:0.5" />
    </g>
    <g
       id="g4699">
      <path
         d="m 158.45,343.78 0.21,-2.8 m 0,0 0.53,-2.75 m 0,0 0.85,-2.67 m 0,0 1.14,-2.56 m 0,0 1.43,-2.41 m 0,0 1.7,-2.23 m 0,0 1.94,-2.03 m 0,0 2.16,-1.78 m 0,0 2.35,-1.53 m 0,0 v 0 m 0,0 10.75,-0.19 m 0,0 v 0 m 0,0 2,0.21 m 0,0 1.95,0.52 m 0,0 v 0 m 0,0 0.47,0.36 m 0,0 0.15,0.57 m 0,0 -0.23,0.54 m 0,0 -0.51,0.3 m 0,0 v 0 m 0,0 -6.35,1.31 m 0,0 v 0 m 0,0 -2.84,0.79 m 0,0 -2.75,1.08 m 0,0 -2.62,1.37 m 0,0 -2.46,1.62 m 0,0 -2.28,1.87 m 0,0 -2.07,2.1 m 0,0 v 0 m 0,0 -2.17,2.69 m 0,0 -1.9,2.89 m 0,0 -1.61,3.06 m 0,0 -1.3,3.2 m 0,0 -0.98,3.32 m 0,0 v 0 m 0,0 -1.27,10.58 m 0,0 -1.03,10.61 m 0,0 -0.08,6.19 m 0,0 0.08,6.18 m 0,0 v 0 m 0,0 1.03,10.61 m 0,0 1.27,10.59 m 0,0 v 0 m 0,0 0.98,3.31 m 0,0 1.3,3.2 m 0,0 1.61,3.06 m 0,0 1.9,2.89 m 0,0 2.17,2.69 m 0,0 v 0 m 0,0 2.07,2.1 m 0,0 2.28,1.87 m 0,0 2.46,1.63 m 0,0 2.62,1.36 m 0,0 2.75,1.08 m 0,0 2.84,0.8 m 0,0 v 0 m 0,0 6.35,1.31 m 0,0 v 0 m 0,0 0.51,0.29 m 0,0 0.23,0.55 m 0,0 -0.15,0.56 m 0,0 -0.47,0.36 m 0,0 v 0 m 0,0 -1.95,0.52 m 0,0 -2,0.22 m 0,0 v 0 m 0,0 -10.75,-0.2 m 0,0 v 0 m 0,0 -2.35,-1.52 m 0,0 -2.16,-1.79 m 0,0 -1.94,-2.02 m 0,0 -1.7,-2.23 m 0,0 -1.43,-2.41 m 0,0 -1.14,-2.56 m 0,0 -0.85,-2.67 m 0,0 -0.53,-2.76 m 0,0 -0.21,-2.79"
         id="path4697"
         inkscape:connector-curvature="0"
         style="fill:none;stroke:#000000;stroke-width:0.5" />
    </g>
    <g
       id="g4703">
      <path
         d="m 170.76,432.99 0.79,-0.81 m 0,0 0.56,-1 m 0,0 0.27,-1.1 m 0,0 v 0 m 0,0 -0.04,-1.24 m 0,0 -0.3,-1.19 m 0,0 -0.55,-1.11"
         id="path4701"
         inkscape:connector-curvature="0"
         style="fill:none;stroke:#000000;stroke-width:0.5" />
    </g>
    <g
       id="g4707">
      <path
         d="m 185.89,432.14 11.42,1.1 m 0,0 11.43,0.78 m 0,0 11.46,0.46 m 0,0 11.47,0.12 m 0,0 v 0 m 0,0 157.85,-0.76 m 0,0 v 0 m 0,0 10.28,-0.26 m 0,0 10.27,-0.63 m 0,0 10.23,-1.03 m 0,0 10.19,-1.4 m 0,0 v 0 m 0,0 -8.44,-5.23 m 0,0 v 0 m 0,0 -2.09,-0.86 m 0,0 -2.18,-0.59 m 0,0 -2.25,-0.28 m 0,0 v 0 m 0,0 -37.08,-0.24 m 0,0 -37.08,0.1 m 0,0 -37.08,0.44 m 0,0 v 0 m 0,0 -10.06,0.91 m 0,0 -10.03,1.27 m 0,0 -9.97,1.61 m 0,0 -9.91,1.96 m 0,0 -9.84,2.3 m 0,0 -9.75,2.65"
         id="path4705"
         inkscape:connector-curvature="0"
         style="fill:none;stroke:#000000;stroke-width:0.5" />
    </g>
    <g
       id="g4711">
      <path
         d="m 236.07,429.97 -0.14,0.73 m 0,0 0.21,0.71 m 0,0 0.5,0.55 m 0,0 v 0 m 0,0 2.4,1.46 m 0,0 2.57,1.15 m 0,0 0.02,3.41"
         id="path4709"
         inkscape:connector-curvature="0"
         style="fill:none;stroke:#000000;stroke-width:0.5" />
    </g>
    <g
       id="g4715">
      <path
         d="m 156.33,349.38 -0.5,-0.07 m 0,0 -0.48,0.19 m 0,0 v 0 m 0,0 -0.78,0.75 m 0,0 -0.52,0.96 m 0,0 v 0 m 0,0 -1.32,4.34 m 0,0 -0.94,4.43 m 0,0 -0.58,4.49 m 0,0 -0.19,4.53"
         id="path4713"
         inkscape:connector-curvature="0"
         style="fill:none;stroke:#000000;stroke-width:0.5" />
    </g>
    <g
       id="g4719">
      <path
         d="m 151.24,373.85 0.05,4.16 m 0,0 -0.05,4.15"
         id="path4717"
         inkscape:connector-curvature="0"
         style="fill:none;stroke:#000000;stroke-width:0.5" />
    </g>
    <g
       id="g4723">
      <path
         d="m 151.02,387.01 0.19,4.53 m 0,0 0.58,4.5 m 0,0 0.94,4.43 m 0,0 1.32,4.33 m 0,0 v 0 m 0,0 0.52,0.96 m 0,0 0.78,0.76 m 0,0 v 0 m 0,0 0.48,0.18 m 0,0 0.5,-0.07"
         id="path4721"
         inkscape:connector-curvature="0"
         style="fill:none;stroke:#000000;stroke-width:0.5" />
    </g>
    <g
       id="g4727">
      <path
         d="m 151.33,392.69 0.35,7.53 m 0,0 0.5,7.53 m 0,0 v 0 m 0,0 0.24,1.69 m 0,0 0.44,1.66 m 0,0 0.64,1.58 m 0,0 v 0 m 0,0 1.71,3.28 m 0,0 1.94,3.15 m 0,0 2.17,3 m 0,0 2.37,2.84 m 0,0 2.58,2.66"
         id="path4725"
         inkscape:connector-curvature="0"
         style="fill:none;stroke:#000000;stroke-width:0.5" />
    </g>
    <g
       id="g4731">
      <path
         d="m 256.19,431.49 -2.74,3.03"
         id="path4729"
         inkscape:connector-curvature="0"
         style="fill:none;stroke:#000000;stroke-width:0.5" />
    </g>
    <g
       id="g4735">
      <path
         d="m 265.81,429.29 -2.16,2.56 m 0,0 -2.05,2.64"
         id="path4733"
         inkscape:connector-curvature="0"
         style="fill:none;stroke:#000000;stroke-width:0.5" />
    </g>
    <g
       id="g4739">
      <path
         d="m 276.4,424.79 10.14,-1.44 m 0,0 10.18,-1.08 m 0,0 10.21,-0.71 m 0,0 10.24,-0.34 m 0,0 v 0 m 0,0 34.6,-1.23 m 0,0 34.61,-0.99 m 0,0 v 0 m 0,0 30.49,-0.89 m 0,0 v 0 m 0,0 8,-0.39 m 0,0 7.99,-0.63 m 0,0 v 0 m 0,0 -5.92,-0.28 m 0,0 -5.92,0.04 m 0,0 v 0 m 0,0 -30.79,0.98 m 0,0 -30.79,0.64 m 0,0 v 0 m 0,0 -21.44,0.46 m 0,0 -21.43,0.75 m 0,0 -21.41,1.03 m 0,0 0.36,-2.36 m 0,0 v 0 m 0,0 14,-1.01 m 0,0 14.02,-0.61 m 0,0 14.04,-0.22 m 0,0 v 0 m 0,0 43.94,-1.18 m 0,0 43.94,-0.91 m 0,0 v 0 m 0,0 3.76,0.03 m 0,0 3.75,0.21"
         id="path4737"
         inkscape:connector-curvature="0"
         style="fill:none;stroke:#000000;stroke-width:0.5" />
    </g>
    <g
       id="g4743">
      <path
         d="m 371.51,419.4 0.77,-1.16"
         id="path4741"
         inkscape:connector-curvature="0"
         style="fill:none;stroke:#000000;stroke-width:0.5" />
    </g>
    <g
       id="g4747">
      <path
         d="m 411.52,418.28 0.67,-1.11"
         id="path4745"
         inkscape:connector-curvature="0"
         style="fill:none;stroke:#000000;stroke-width:0.5" />
    </g>
    <g
       id="g4751">
      <path
         d="m 262.87,432.82 126.25,-0.23 m 0,0 v 0 m 0,0 10.36,-0.48 m 0,0 10.36,-0.69 m 0,0 10.34,-0.89 m 0,0 v 0 m 0,0 4.04,-0.57 m 0,0 3.98,-0.9"
         id="path4749"
         inkscape:connector-curvature="0"
         style="fill:none;stroke:#000000;stroke-width:0.5" />
    </g>
    <g
       id="g4755">
      <path
         d="m 276.07,422.18 9.6,-1.33 m 0,0 9.63,-1.09"
         id="path4753"
         inkscape:connector-curvature="0"
         style="fill:none;stroke:#000000;stroke-width:0.5" />
    </g>
    <g
       id="g4759">
      <path
         d="m 151.24,382.16 0.66,0.99 m 0,0 v 0 m 0,0 0.26,0.21 m 0,0 0.33,0.03 m 0,0 0.3,-0.16 m 0,0 0.9,-0.93"
         id="path4757"
         inkscape:connector-curvature="0"
         style="fill:none;stroke:#000000;stroke-width:0.5" />
    </g>
    <g
       id="g4763">
      <path
         d="m 211.41,434.16 3.39,-2.1 m 0,0 3.3,-2.25 m 0,0 3.18,-2.41"
         id="path4761"
         inkscape:connector-curvature="0"
         style="fill:none;stroke:#000000;stroke-width:0.5" />
    </g>
    <g
       id="g4767">
      <path
         d="m 318.65,432.81 2.82,-2.3 m 0,0 2.68,-2.47 m 0,0 2.53,-2.63 m 0,0 v 0 m 0,0 0.64,-0.87 m 0,0 0.42,-1"
         id="path4765"
         inkscape:connector-curvature="0"
         style="fill:none;stroke:#000000;stroke-width:0.5" />
    </g>
    <g
       id="g4771">
      <path
         d="m 324.95,432.8 2.18,-2.03 m 0,0 1.96,-2.25 m 0,0 1.72,-2.43 m 0,0 1.47,-2.6"
         id="path4769"
         inkscape:connector-curvature="0"
         style="fill:none;stroke:#000000;stroke-width:0.5" />
    </g>
    <g
       id="g4775">
      <path
         d="m 329.91,432.79 1.97,-2.05 m 0,0 1.73,-2.26 m 0,0 1.47,-2.44 m 0,0 1.2,-2.58"
         id="path4773"
         inkscape:connector-curvature="0"
         style="fill:none;stroke:#000000;stroke-width:0.5" />
    </g>
    <g
       id="g4779">
      <path
         d="m 383.09,423.34 2.02,9.27"
         id="path4777"
         inkscape:connector-curvature="0"
         style="fill:none;stroke:#000000;stroke-width:0.5" />
    </g>
    <g
       id="g4783">
      <path
         d="m 380.22,432.63 4.26,-2.9"
         id="path4781"
         inkscape:connector-curvature="0"
         style="fill:none;stroke:#000000;stroke-width:0.5" />
    </g>
    <g
       id="g4787">
      <path
         d="m 363.18,421.69 18.89,0.09 m 0,0 18.89,-0.14 m 0,0 18.89,-0.37 m 0,0 v 0 m 0,0 9.94,-0.4 m 0,0 v 0 m 0,0 2.9,-0.33 m 0,0 v 0 m 0,0 1.6,-0.4 m 0,0 1.54,-0.57 m 0,0 1.48,-0.75"
         id="path4785"
         inkscape:connector-curvature="0"
         style="fill:none;stroke:#000000;stroke-width:0.5" />
    </g>
    <g
       id="g4791">
      <path
         d="m 315.86,421.24 0.46,-0.41 m 0,0 0.28,-0.55 m 0,0 0.09,-0.61"
         id="path4789"
         inkscape:connector-curvature="0"
         style="fill:none;stroke:#000000;stroke-width:0.5" />
    </g>
    <g
       id="g4795">
      <path
         d="m 363.18,419.64 -0.02,-1.23"
         id="path4793"
         inkscape:connector-curvature="0"
         style="fill:none;stroke:#000000;stroke-width:0.5" />
    </g>
    <g
       id="g4799">
      <path
         d="m 300.36,421.98 -0.08,-1.54"
         id="path4797"
         inkscape:connector-curvature="0"
         style="fill:none;stroke:#000000;stroke-width:0.5" />
    </g>
    <g
       id="g4803">
      <path
         d="M 262.63,364.63 264.5,364 m 0,0 1.78,-0.83 m 0,0 1.68,-1.03 m 0,0 v 0 m 0,0 0.75,-0.68 m 0,0 0.54,-0.86 m 0,0 0.32,-0.97 m 0,0 v 0 m 0,0 1.08,-11.06 m 0,0 0.95,-11.08 m 0,0 v 0 m 0,0 -0.08,-1.07 m 0,0 -0.33,-1.02 m 0,0 -0.57,-0.9 m 0,0 -0.77,-0.74 m 0,0 v 0 m 0,0 -1.5,-0.94 m 0,0 -1.63,-0.69 m 0,0 -1.71,-0.43 m 0,0 v 0 m 0,0 -7.53,-1.12 m 0,0 -7.57,-0.83 m 0,0 -7.6,-0.56 m 0,0 -7.61,-0.28 m 0,0 v 0 m 0,0 -1.09,0.12 m 0,0 -1.04,0.37 m 0,0 -0.92,0.61 m 0,0 v 0 m 0,0 -0.96,1.03 m 0,0 -0.76,1.18 m 0,0 -0.54,1.3 m 0,0 v 0 m 0,0 -1.08,4.15 m 0,0 -0.9,4.19 m 0,0 -0.73,4.23 m 0,0 v 0 m 0,0 -0.97,7.48 m 0,0 -0.63,7.53 m 0,0 -0.28,7.54 m 0,0 v 0 m 0,0 -0.03,9.37 m 0,0 v 0 m 0,0 0.03,9.36 m 0,0 v 0 m 0,0 0.28,7.55 m 0,0 0.63,7.52 m 0,0 0.97,7.49 m 0,0 v 0 m 0,0 0.73,4.22 m 0,0 0.9,4.19 m 0,0 1.08,4.16 m 0,0 v 0 m 0,0 0.54,1.29 m 0,0 0.76,1.19 m 0,0 0.96,1.02 m 0,0 v 0 m 0,0 0.92,0.61 m 0,0 1.04,0.38 m 0,0 1.09,0.12 m 0,0 v 0 m 0,0 7.61,-0.28 m 0,0 7.6,-0.56 m 0,0 7.57,-0.84 m 0,0 7.53,-1.11 m 0,0 v 0 m 0,0 1.71,-0.44 m 0,0 1.63,-0.69 m 0,0 1.5,-0.93 m 0,0 v 0 m 0,0 0.77,-0.74 m 0,0 0.57,-0.91 m 0,0 0.33,-1.01 m 0,0 0.08,-1.07 m 0,0 v 0 m 0,0 -0.28,-3.36"
         id="path4801"
         inkscape:connector-curvature="0"
         style="fill:none;stroke:#000000;stroke-width:0.5" />
    </g>
    <g
       id="g4807">
      <path
         d="m 271.06,412.05 -1.49,-15.67 m 0,0 v 0 m 0,0 -0.35,-1.04"
         id="path4805"
         inkscape:connector-curvature="0"
         style="fill:none;stroke:#000000;stroke-width:0.5" />
    </g>
    <g
       id="g4811">
      <path
         d="m 227.25,413.34 12.18,0.13 m 0,0 1.26,1.33 m 0,0 0.32,12.09"
         id="path4809"
         inkscape:connector-curvature="0"
         style="fill:none;stroke:#000000;stroke-width:0.5" />
    </g>
    <g
       id="g4815">
      <path
         d="m 246.8,424.41 0.02,-7.59 m 0,0 v 0 m 0,0 -0.79,-0.11 m 0,0 -0.79,0.12 m 0,0 -0.73,0.34 m 0,0 -0.6,0.53 m 0,0 v 0 m 0,0 -0.37,0.66 m 0,0 -0.14,0.74 m 0,0 v 0 m 0,0 0.08,3.24 m 0,0 v 0 m 0,0 0.2,0.7 m 0,0 0.47,0.55 m 0,0 v 0 m 0,0 0.83,0.45 m 0,0 0.89,0.28 m 0,0 0.93,0.09"
         id="path4813"
         inkscape:connector-curvature="0"
         style="fill:none;stroke:#000000;stroke-width:0.5" />
    </g>
    <g
       id="g4819">
      <path
         d="m 247.67,378.01 -0.14,-6.28 m 0,0 v 0 m 0,0 -0.27,-1.39 m 0,0 -0.63,-1.27 m 0,0 -0.93,-1.05 m 0,0 -1.18,-0.78 m 0,0 -1.34,-0.44 m 0,0 v 0 m 0,0 -2.16,-0.4 m 0,0 -2.18,-0.2 m 0,0 v 0 m 0,0 -1.36,0.03 m 0,0 -1.31,0.33 m 0,0 -1.22,0.62 m 0,0 v 0 m 0,0 -0.82,0.9 m 0,0 -0.51,1.1 m 0,0 -0.15,1.21 m 0,0 0.01,7.62 m 0,0 -0.01,7.61 m 0,0 v 0 m 0,0 0.15,1.21 m 0,0 0.51,1.11 m 0,0 0.82,0.9 m 0,0 v 0 m 0,0 1.22,0.61 m 0,0 1.31,0.33 m 0,0 1.36,0.04 m 0,0 v 0 m 0,0 2.18,-0.2 m 0,0 2.16,-0.4 m 0,0 v 0 m 0,0 1.34,-0.45 m 0,0 1.18,-0.77 m 0,0 0.93,-1.06 m 0,0 0.63,-1.27 m 0,0 0.27,-1.38 m 0,0 0.14,-6.28"
         id="path4817"
         inkscape:connector-curvature="0"
         style="fill:none;stroke:#000000;stroke-width:0.5" />
    </g>
    <g
       id="g4823">
      <path
         d="m 226.26,349.03 4.29,1.44 m 0,0 v 0 m 0,0 -0.89,8.09 m 0,0 -0.63,8.11 m 0,0 -0.37,8.14 m 0,0 v 3.2 m 0,0 v 3.2 m 0,0 v 0 m 0,0 0.37,8.13 m 0,0 0.63,8.12 m 0,0 0.89,8.09 m 0,0 -4.29,1.43"
         id="path4821"
         inkscape:connector-curvature="0"
         style="fill:none;stroke:#000000;stroke-width:0.5" />
    </g>
    <g
       id="g4827">
      <path
         d="m 226.45,380.59 0.02,5.87 m 0,0 0.31,5.86 m 0,0 0.59,5.84 m 0,0 0.87,5.8 m 0,0 v 0 m 0,0 0.15,0.24 m 0,0 0.28,0.07 m 0,0 0.25,-0.14 m 0,0 0.08,-0.28 m 0,0 v 0 m 0,0 -0.7,-7.73 m 0,0 -0.47,-7.75 m 0,0 -0.23,-7.76 m 0,0 v 0 m 0,0 -0.16,-0.4 m 0,0 -0.4,-0.17 m 0,0 -0.41,0.16 m 0,0 -0.18,0.39"
         id="path4825"
         inkscape:connector-curvature="0"
         style="fill:none;stroke:#000000;stroke-width:0.5" />
    </g>
    <g
       id="g4831">
      <path
         d="m 246.2,387.5 6.8,-0.19 m 0,0 6.78,-0.51 m 0,0 6.74,-0.85"
         id="path4829"
         inkscape:connector-curvature="0"
         style="fill:none;stroke:#000000;stroke-width:0.5" />
    </g>
    <g
       id="g4835">
      <path
         d="m 267.52,393.58 -1.86,-1.06 m 0,0 -1.99,-0.81 m 0,0 v 0 m 0,0 -0.78,-0.71 m 0,0 -0.51,-0.91 m 0,0 -0.19,-1.04 m 0,0 v 0 m 0,0 0.03,-2.52"
         id="path4833"
         inkscape:connector-curvature="0"
         style="fill:none;stroke:#000000;stroke-width:0.5" />
    </g>
    <g
       id="g4839">
      <path
         d="m 255.04,387.19 0.41,-9.18 m 0,0 v 0 m 0,0 -0.41,-9.19"
         id="path4837"
         inkscape:connector-curvature="0"
         style="fill:none;stroke:#000000;stroke-width:0.5" />
    </g>
    <g
       id="g4843">
      <path
         d="m 261.7,386.59 -0.16,-8.58 m 0,0 v 0 m 0,0 0.16,-8.59"
         id="path4841"
         inkscape:connector-curvature="0"
         style="fill:none;stroke:#000000;stroke-width:0.5" />
    </g>
    <g
       id="g4847">
      <path
         d="m 441.18,325.11 -0.24,0.6 m 0,0 -0.34,0.54 m 0,0 v 0 m 0,0 -3.66,4.09 m 0,0 -3.9,3.88 m 0,0 v 0 m 0,0 -0.28,0.6 m 0,0 -0.07,0.66 m 0,0 v 0 m 0,0 0.5,11.66 m 0,0 0.32,11.67 m 0,0 0.14,11.67 m 0,0 v 7.53 m 0,0 v 7.53 m 0,0 v 0 m 0,0 -0.14,11.67 m 0,0 -0.32,11.67 m 0,0 -0.5,11.66 m 0,0 v 0 m 0,0 0.07,0.66 m 0,0 0.28,0.6 m 0,0 v 0 m 0,0 3.9,3.87 m 0,0 3.66,4.1 m 0,0 v 0 m 0,0 0.34,0.54 m 0,0 0.24,0.59"
         id="path4845"
         inkscape:connector-curvature="0"
         style="fill:none;stroke:#000000;stroke-width:0.5" />
    </g>
    <g
       id="g4851">
      <path
         d="m 447.07,433.17 2.07,-2.29 m 0,0 1.78,-2.53 m 0,0 1.45,-2.72 m 0,0 v 0 m 0,0 0.2,-0.83 m 0,0 -0.01,-0.84 m 0,0 -0.23,-0.82 m 0,0 v 0 m 0,0 2.06,-4.96 m 0,0 1.79,-5.07 m 0,0 1.5,-5.17 m 0,0 1.22,-5.23 m 0,0 0.92,-5.3 m 0,0 0.63,-5.34 m 0,0 0.5,-14.06 m 0,0 -0.5,-14.06 m 0,0 v 0 m 0,0 -0.3,-4.62 m 0,0 -0.59,-4.59 m 0,0 -0.88,-4.54 m 0,0 -1.17,-4.47 m 0,0 -1.46,-4.39 m 0,0 -1.73,-4.29 m 0,0 -1.99,-4.18 m 0,0 v 0 m 0,0 0.23,-0.81 m 0,0 0.01,-0.85 m 0,0 -0.2,-0.82 m 0,0 v 0 m 0,0 -1.45,-2.73 m 0,0 -1.78,-2.52 m 0,0 -2.07,-2.3 m 0,0 v 0 m 0,0 -7.2,-0.98 m 0,0 -7.24,-0.73 m 0,0 -7.25,-0.49 m 0,0 v 0 m 0,0 -7.99,-0.35 m 0,0 v 0 m 0,0 -0.69,-0.1 m 0,0 -0.65,-0.24 m 0,0 v 0 m 0,0 -3.42,-0.92 m 0,0 -3.47,-0.68 m 0,0 -3.52,-0.46 m 0,0 -3.53,-0.21 m 0,0 -17.33,-0.14"
         id="path4849"
         inkscape:connector-curvature="0"
         style="fill:none;stroke:#000000;stroke-width:0.5" />
    </g>
    <g
       id="g4855">
      <path
         d="m 425.38,320.64 0.62,0.98 m 0,0 0.91,0.72 m 0,0 1.1,0.38 m 0,0 v 0 m 0,0 13.17,2.39 m 0,0 v 0 m 0,0 1.96,0.34 m 0,0 1.9,0.6 m 0,0 1.79,0.85 m 0,0 v 0 m 0,0 -1.24,1.96 m 0,0 -1.5,1.77 m 0,0 -1.72,1.55 m 0,0 v 0 m 0,0 -2.06,1.68 m 0,0 -1.97,1.79 m 0,0 v 0 m 0,0 -0.6,0.72 m 0,0 -0.43,0.82 m 0,0 v 0 m 0,0 -0.13,0.61 m 0,0 0.08,0.61 m 0,0 v 0 m 0,0 0.42,0.94 m 0,0 0.64,0.82 m 0,0 v 0 m 0,0 1.13,1.36 m 0,0 0.88,1.52 m 0,0 v 0 m 0,0 1.32,3.18 m 0,0 0.97,3.31 m 0,0 v 0 m 0,0 1.16,5.62 m 0,0 0.85,5.67 m 0,0 0.55,5.71 m 0,0 0.23,5.73 m 0,0 -0.08,5.74 m 0,0 v 0 m 0,0 0.08,5.73 m 0,0 -0.23,5.73 m 0,0 -0.55,5.72 m 0,0 -0.85,5.67 m 0,0 -1.16,5.62 m 0,0 v 0 m 0,0 -0.97,3.3 m 0,0 -1.32,3.18 m 0,0 v 0 m 0,0 -0.88,1.53 m 0,0 -1.13,1.35 m 0,0 v 0 m 0,0 -0.64,0.82 m 0,0 -0.42,0.95 m 0,0 v 0 m 0,0 -0.08,0.61 m 0,0 0.13,0.6 m 0,0 v 0 m 0,0 0.43,0.83 m 0,0 0.6,0.72 m 0,0 v 0 m 0,0 1.97,1.79 m 0,0 2.06,1.67 m 0,0 v 0 m 0,0 1.72,1.56 m 0,0 1.5,1.77 m 0,0 1.24,1.95 m 0,0 v 0 m 0,0 -1.79,0.86 m 0,0 -1.9,0.6 m 0,0 -1.96,0.33 m 0,0 v 0 m 0,0 -13.17,2.39 m 0,0 v 0 m 0,0 -1.1,0.38 m 0,0 -0.91,0.72 m 0,0 -0.62,0.98"
         id="path4853"
         inkscape:connector-curvature="0"
         style="fill:none;stroke:#000000;stroke-width:0.5" />
    </g>
    <g
       id="g4859">
      <path
         d="m 452.33,423.14 -1.67,2.14 m 0,0 -1.84,1.99 m 0,0 -1.99,1.84 m 0,0 0.24,4.06 m 0,0 v 0 m 0,0 -7.2,0.98 m 0,0 -7.24,0.74 m 0,0 -7.25,0.48 m 0,0 v 0 m 0,0 -7.99,0.35 m 0,0 v 0 m 0,0 -0.69,0.1 m 0,0 -0.65,0.25 m 0,0 v 0 m 0,0 -3.42,0.91 m 0,0 -3.47,0.69 m 0,0 -3.52,0.45 m 0,0 -3.53,0.21 m 0,0 -17.33,0.15"
         id="path4857"
         inkscape:connector-curvature="0"
         style="fill:none;stroke:#000000;stroke-width:0.5" />
    </g>
    <g
       id="g4863">
      <path
         d="m 369.04,438.62 -50.12,0.39 m 0,0 v 0 m 0,0 h -0.5"
         id="path4861"
         inkscape:connector-curvature="0"
         style="fill:none;stroke:#000000;stroke-width:0.5" />
    </g>
    <g
       id="g4867">
      <path
         d="m 302.32,438.97 -19.65,-0.24 m 0,0 -19.65,-0.41"
         id="path4865"
         inkscape:connector-curvature="0"
         style="fill:none;stroke:#000000;stroke-width:0.5" />
    </g>
    <g
       id="g4871">
      <path
         d="m 380.79,437.6 4.61,-0.03 m 0,0 v 0 m 0,0 -0.62,0.91 m 0,0 -0.84,0.72 m 0,0 -0.99,0.49 m 0,0 -1.08,0.22 m 0,0 v 0 m 0,0 -4.71,0.27 m 0,0 -4.72,-0.05 m 0,0 v 0 m 0,0 -1.2,-0.2 m 0,0 -1.12,-0.48 m 0,0 -0.98,-0.73 m 0,0 -0.79,-0.94 m 0,0 3.98,-0.1 m 0,0 v 0 m 0,0 0.83,0.47 m 0,0 0.91,0.3 m 0,0 0.94,0.11 m 0,0 v 0 m 0,0 3.24,-0.07 m 0,0 v 0 m 0,0 1.32,-0.29 m 0,0 1.22,-0.6"
         id="path4869"
         inkscape:connector-curvature="0"
         style="fill:none;stroke:#000000;stroke-width:0.5" />
    </g>
    <g
       id="g4875">
      <path
         d="m 382.2,439.87 -0.01,-2.28"
         id="path4873"
         inkscape:connector-curvature="0"
         style="fill:none;stroke:#000000;stroke-width:0.5" />
    </g>
    <g
       id="g4879">
      <path
         d="m 389.1,438.44 0.2,-0.66 m 0,0 0.3,-0.62 m 0,0 v 0 m 0,0 0.43,-0.79 m 0,0 v 0 m 0,0 0.18,-0.75 m 0,0 -0.14,-0.75 m 0,0 v 0 m 0,0 -0.35,-1.03 m 0,0 -0.41,-1.26 m 0,0 -2.02,-9.22"
         id="path4877"
         inkscape:connector-curvature="0"
         style="fill:none;stroke:#000000;stroke-width:0.5" />
    </g>
    <g
       id="g4883">
      <path
         d="m 321.64,438.99 0.72,-1.51 m 0,0 0.46,-1.6 m 0,0 0.18,-1.66"
         id="path4881"
         inkscape:connector-curvature="0"
         style="fill:none;stroke:#000000;stroke-width:0.5" />
    </g>
    <g
       id="g4887">
      <path
         d="m 314.36,438.21 4.61,-0.02 m 0,0 v 0 m 0,0 -0.62,0.9 m 0,0 -0.82,0.71 m 0,0 -0.98,0.49 m 0,0 -1.06,0.22 m 0,0 v 0 m 0,0 -4.73,0.28 m 0,0 -4.73,-0.01 m 0,0 v 0 m 0,0 -1.22,-0.19 m 0,0 -1.14,-0.48 m 0,0 -0.98,-0.75 m 0,0 -0.77,-0.96 m 0,0 3.98,-0.1 m 0,0 v 0 m 0,0 0.83,0.46 m 0,0 0.91,0.3 m 0,0 0.94,0.11 m 0,0 v 0 m 0,0 3.24,-0.06 m 0,0 v 0 m 0,0 1.32,-0.3 m 0,0 1.22,-0.6"
         id="path4885"
         inkscape:connector-curvature="0"
         style="fill:none;stroke:#000000;stroke-width:0.5" />
    </g>
    <g
       id="g4891">
      <path
         d="m 315.96,440.45 -0.01,-2.25"
         id="path4889"
         inkscape:connector-curvature="0"
         style="fill:none;stroke:#000000;stroke-width:0.5" />
    </g>
    <g
       id="g4895">
      <path
         d="m 442.19,423.69 4.08,-2.28 m 0,0 3.95,-2.51 m 0,0 3.8,-2.72 m 0,0 v 0 m 0,0 0.22,-0.25 m 0,0 0.09,-0.32 m 0,0 v 0 m 0,0 -0.05,-2.94 m 0,0 0.19,-2.93 m 0,0 0.45,-2.91 m 0,0 v 0 m 0,0 0.96,-5.71 m 0,0 0.67,-5.75 m 0,0 0.38,-5.78 m 0,0 0.1,-5.79 m 0,0 -0.19,-5.79 m 0,0 v 0 m 0,0 0.19,-5.79 m 0,0 -0.1,-5.79 m 0,0 -0.38,-5.78 m 0,0 -0.67,-5.75 m 0,0 -0.96,-5.72 m 0,0 v 0 m 0,0 -0.45,-2.9 m 0,0 -0.19,-2.94 m 0,0 0.05,-2.94 m 0,0 v 0 m 0,0 -0.09,-0.31 m 0,0 -0.22,-0.26 m 0,0 v 0 m 0,0 -3.8,-2.72 m 0,0 -3.95,-2.5 m 0,0 -4.08,-2.28"
         id="path4893"
         inkscape:connector-curvature="0"
         style="fill:none;stroke:#000000;stroke-width:0.5" />
    </g>
    <g
       id="g4899">
      <path
         d="m 439.32,418.4 6.84,-1.13 m 0,0 6.78,-1.48"
         id="path4897"
         inkscape:connector-curvature="0"
         style="fill:none;stroke:#000000;stroke-width:0.5" />
    </g>
    <g
       id="g4903">
      <path
         d="m 454.31,411.73 2.85,-0.31"
         id="path4901"
         inkscape:connector-curvature="0"
         style="fill:none;stroke:#000000;stroke-width:0.5" />
    </g>
    <g
       id="g4907">
      <path
         d="m 176.97,433.13 9.62,2.17 m 0,0 9.57,2.39 m 0,0 v 0 m 0,0 2.71,0.55 m 0,0 2.75,0.27 m 0,0 2.77,-0.03 m 0,0 v 0 m 0,0 18.62,-0.06 m 0,0 18.62,-0.44 m 0,0 v 0 m 0,0 6.47,-0.1 m 0,0 6.47,0.2 m 0,0 v 0 m 0,0 0.82,0.03 m 0,0 v 0 m 0,0 2.95,-0.64 m 0,0 3.01,-0.25 m 0,0 v 0 m 0,0 0.69,0.13 m 0,0 0.59,0.38 m 0,0 0.39,0.59 m 0,0 v 0 m 0,0 1.5,3.87 m 0,0 1.3,3.94 m 0,0 1.11,4 m 0,0 v 0 m 0,0 0.03,0.66 m 0,0 -0.23,0.61 m 0,0 -0.45,0.48 m 0,0 -0.6,0.26 m 0,0 v 0 m 0,0 -1.22,0.12 m 0,0 -1.22,-0.16 m 0,0 -1.15,-0.45 m 0,0 -1.02,-0.69 m 0,0 v 0 m 0,0 -1.37,-1.44 m 0,0 -1.09,-1.67 m 0,0 v 0 m 0,0 -1.64,-3.48 m 0,0 -1.36,-3.59 m 0,0 v 0 m 0,0 -0.27,-1.32 m 0,0 0.05,-1.35 m 0,0 v 0 m 0,0 -0.6,-0.47 m 0,0 -0.35,-0.68 m 0,0 v 0 m 0,0 0.07,-0.44 m 0,0 0.32,-0.3 m 0,0 v 0 m 0,0 1.34,-0.41 m 0,0 v 0 m 0,0 2.28,-0.3 m 0,0 h 2.31 m 0,0 v 0 m 0,0 1.06,0.21 m 0,0 1.02,0.37 m 0,0 v 0 m 0,0 0.28,0.26 m 0,0 0.07,0.39 m 0,0 -0.18,0.34 m 0,0 v 0 m 0,0 -0.66,0.43"
         id="path4905"
         inkscape:connector-curvature="0"
         style="fill:none;stroke:#000000;stroke-width:0.5" />
    </g>
    <g
       id="g4911">
      <path
         d="m 255.53,440.52 4.5,-0.49"
         id="path4909"
         inkscape:connector-curvature="0"
         style="fill:none;stroke:#000000;stroke-width:0.5" />
    </g>
    <g
       id="g4915">
      <path
         d="M 265.91,452.07 261.2,440.09"
         id="path4913"
         inkscape:connector-curvature="0"
         style="fill:none;stroke:#000000;stroke-width:0.5" />
    </g>
    <g
       id="g4919">
      <path
         d="m 454.98,349.49 1.05,-0.01 m 0,0 v 0 m 0,0 0.24,0.08 m 0,0 0.18,0.17 m 0,0 v 0 m 0,0 1.09,3.44 m 0,0 0.87,3.5 m 0,0 0.65,3.55 m 0,0 v 0 m 0,0 0.74,5.9 m 0,0 0.47,5.94 m 0,0 0.18,5.95 m 0,0 v 0 m 0,0 -0.95,0.29 m 0,0 -0.99,0.07 m 0,0 v 0 m 0,0 -1.66,-0.24"
         id="path4917"
         inkscape:connector-curvature="0"
         style="fill:none;stroke:#000000;stroke-width:0.5" />
    </g>
    <g
       id="g4923">
      <path
         d="m 256.33,425.58 v -5.55 m 0,0 v 0 m 0,0 0.19,-1.34 m 0,0 0.56,-1.23 m 0,0 v 0 m 0,0 1.41,-2.47 m 0,0 1.13,-2.61 m 0,0 0.85,-2.72 m 0,0 0.55,-2.79 m 0,0 0.24,-2.83 m 0,0 v 0 m 0,0 -0.05,-3.18 m 0,0 -0.33,-3.16 m 0,0 -0.62,-3.11 m 0,0 -0.89,-3.05 m 0,0 -1.17,-2.95 m 0,0 -0.15,-1.63"
         id="path4921"
         inkscape:connector-curvature="0"
         style="fill:none;stroke:#000000;stroke-width:0.5" />
    </g>
    <g
       id="g4927">
      <path
         d="m 257.93,416.04 -2.84,-0.19 m 0,0 -2.79,-0.56 m 0,0 -2.69,-0.92 m 0,0 -2.55,-1.27"
         id="path4925"
         inkscape:connector-curvature="0"
         style="fill:none;stroke:#000000;stroke-width:0.5" />
    </g>
    <g
       id="g4931">
      <path
         d="m 260.34,410.15 -3.41,0.29 m 0,0 -3.36,0.59 m 0,0 -3.3,0.89 m 0,0 -3.21,1.18 m 0,0 v 0 m 0,0 -1.91,-0.56 m 0,0 -1.76,-0.9 m 0,0 -1.57,-1.23 m 0,0 -1.31,-1.49 m 0,0 -1,-1.71 m 0,0 -0.67,-1.88 m 0,0 -0.3,-1.96 m 0,0 0.07,-1.99 m 0,0 0.45,-1.93 m 0,0 0.8,-1.82 m 0,0 1.13,-1.64 m 0,0 v 0 m 0,0 1.32,-1.38 m 0,0 1.5,-1.2 m 0,0 1.64,-0.99 m 0,0 1.75,-0.76"
         id="path4929"
         inkscape:connector-curvature="0"
         style="fill:none;stroke:#000000;stroke-width:0.5" />
    </g>
    <g
       id="g4935">
      <path
         d="m 260.19,394.3 -3.32,-0.2 m 0,0 -3.3,-0.51 m 0,0 -3.23,-0.82 m 0,0 -3.14,-1.11 m 0,0 v 0 m 0,0 2,-1.18 m 0,0 2.14,-0.91 m 0,0 2.24,-0.63 m 0,0 2.3,-0.33 m 0,0 2.32,-0.02 m 0,0 4.02,-1.46 m 0,0 v 0 m 0,0 2.09,-0.37 m 0,0 2.01,-0.71 m 0,0 1.86,-1.03 m 0,0 v 0 m 0,0 0.63,-0.57 m 0,0 0.45,-0.72 m 0,0 0.22,-0.81 m 0,0 0.05,-4.91 m 0,0 -0.08,-6.15 m 0,0 v 0 m 0,0 -0.2,-1.11 m 0,0 -0.55,-0.98 m 0,0 -0.83,-0.76 m 0,0 v 0 m 0,0 -1.97,-1.12 m 0,0 v 0 m 0,0 -1.29,-0.87 m 0,0 -1.1,-1.11 m 0,0 -0.88,-1.28 m 0,0 -3.76,-33.86"
         id="path4933"
         inkscape:connector-curvature="0"
         style="fill:none;stroke:#000000;stroke-width:0.5" />
    </g>
    <g
       id="g4939">
      <path
         d="m 275.19,414.83 -1.06,0.44 m 0,0 -1.13,0.16 m 0,0 -1.14,-0.11 m 0,0 -1.08,-0.38 m 0,0 -0.95,-0.63 m 0,0 v 0 m 0,0 -1.56,-2.11 m 0,0 -1.24,-2.31 m 0,0 -0.89,-2.47 m 0,0 -0.53,-2.57 m 0,0 -0.15,-2.62 m 0,0 v 0 m 0,0 0.16,-2.61 m 0,0 0.52,-2.57 m 0,0 0.89,-2.46 m 0,0 1.24,-2.31 m 0,0 1.56,-2.1 m 0,0 v 0 m 0,0 0.92,-0.61 m 0,0 1.04,-0.39 m 0,0 1.1,-0.15"
         id="path4937"
         inkscape:connector-curvature="0"
         style="fill:none;stroke:#000000;stroke-width:0.5" />
    </g>
    <g
       id="g4943">
      <path
         d="m 275,413.11 -1.19,0.15 m 0,0 -1.18,-0.17 m 0,0 -1.1,-0.48 m 0,0 v 0 m 0,0 -1.36,-1.8 m 0,0 -1.08,-1.98 m 0,0 -0.77,-2.13 m 0,0 -0.45,-2.21 m 0,0 -0.11,-2.26 m 0,0 v 0 m 0,0 0.13,-2.24 m 0,0 0.44,-2.21 m 0,0 0.75,-2.12 m 0,0 1.04,-2 m 0,0 1.32,-1.82 m 0,0 v 0 m 0,0 0.76,-0.39 m 0,0 0.85,-0.13"
         id="path4941"
         inkscape:connector-curvature="0"
         style="fill:none;stroke:#000000;stroke-width:0.5" />
    </g>
    <g
       id="g4947">
      <path
         d="m 274.59,409.21 -1.05,0.07 m 0,0 -1.03,-0.18 m 0,0 -0.96,-0.41 m 0,0 -0.84,-0.63"
         id="path4945"
         inkscape:connector-curvature="0"
         style="fill:none;stroke:#000000;stroke-width:0.5" />
    </g>
    <g
       id="g4951">
      <path
         d="m 273.33,395.2 -1.31,0.2 m 0,0 -1.26,0.4 m 0,0 -1.19,0.58"
         id="path4949"
         inkscape:connector-curvature="0"
         style="fill:none;stroke:#000000;stroke-width:0.5" />
    </g>
    <g
       id="g4955">
      <path
         d="m 274.25,405.78 -0.98,-0.65 m 0,0 -0.74,-0.9 m 0,0 -0.44,-1.09 m 0,0 -0.11,-1.16 m 0,0 0.24,-1.15 m 0,0 0.57,-1.02 m 0,0 0.85,-0.82"
         id="path4953"
         inkscape:connector-curvature="0"
         style="fill:none;stroke:#000000;stroke-width:0.5" />
    </g>
    <g
       id="g4959">
      <path
         d="m 266.3,407.96 -5.65,0.94"
         id="path4957"
         inkscape:connector-curvature="0"
         style="fill:none;stroke:#000000;stroke-width:0.5" />
    </g>
    <g
       id="g4963">
      <path
         d="m 266.4,396.2 -5.86,-0.39"
         id="path4961"
         inkscape:connector-curvature="0"
         style="fill:none;stroke:#000000;stroke-width:0.5" />
    </g>
    <g
       id="g4967">
      <path
         d="m 264.78,396.1 -0.88,1.91 m 0,0 -0.54,2.04 m 0,0 -0.18,2.1 m 0,0 0.18,2.1 m 0,0 0.55,2.04 m 0,0 0.88,1.92"
         id="path4965"
         inkscape:connector-curvature="0"
         style="fill:none;stroke:#000000;stroke-width:0.5" />
    </g>
    <g
       id="g4971">
      <path
         d="m 256.37,419.43 -4.7,-0.07 m 0,0 v 0 m 0,0 -0.29,0.08 m 0,0 -0.22,0.22 m 0,0 -0.07,0.29 m 0,0 0.14,6.19"
         id="path4969"
         inkscape:connector-curvature="0"
         style="fill:none;stroke:#000000;stroke-width:0.5" />
    </g>
    <g
       id="g4975">
      <path
         d="m 222.77,421.38 -1.51,-5.87 m 0,0 -1.24,-5.93 m 0,0 -0.96,-5.98 m 0,0 -0.68,-6.02 m 0,0 -0.41,-6.04 m 0,0 v 0 m 0,0 v -4.29 m 0,0 0.36,-4.27 m 0,0 0.88,0.37 m 0,0 v 0 m 0,0 -0.2,5.52 m 0,0 0.19,5.52 m 0,0 0.56,5.5 m 0,0 0.94,5.44 m 0,0 v 0 m 0,0 1.35,6.03 m 0,0 1.51,5.99 m 0,0 v 0 m 0,0 0.78,1.74 m 0,0 0.64,1.8 m 0,0 v 0 m 0,0 v 0.48 m 0,0 -0.25,0.42 m 0,0 -0.44,0.21 m 0,0 v 0 m 0,0 -0.57,-0.01 m 0,0 -0.53,-0.22 m 0,0 -0.42,-0.39"
         id="path4973"
         inkscape:connector-curvature="0"
         style="fill:none;stroke:#000000;stroke-width:0.5" />
    </g>
    <g
       id="g4979">
      <path
         d="m 223.39,416.72 -1.74,0.43"
         id="path4977"
         inkscape:connector-curvature="0"
         style="fill:none;stroke:#000000;stroke-width:0.5" />
    </g>
    <g
       id="g4983">
      <path
         d="m 151.02,369 -0.19,9.01 m 0,0 0.19,9"
         id="path4981"
         inkscape:connector-curvature="0"
         style="fill:none;stroke:#000000;stroke-width:0.5" />
    </g>
  </g>
</svg>
